<svg viewBox="0 0 115 27" xmlns="http://www.w3.org/2000/svg" xmlns:xlink="http://www.w3.org/1999/xlink">
  <defs>
    <linearGradient x1="0%" y1="50%" x2="100%" y2="50%" id="sf-redgradient">
      <stop stop-color="#FF0000" offset="0%"></stop>
      <stop stop-color="#FF0000" offset="50%"></stop>
      <stop stop-color="#FF7000" offset="100%"></stop>
    </linearGradient>
  </defs>
  <g stroke="none" stroke-width="1" fill="none" fill-rule="evenodd">
    <g transform="translate(-62.000000, -85.000000)" fill="url(#sf-redgradient)">
      <g transform="translate(62.000000, 85.000000)">
        <path d="M15.2145,9.35814559 C16.7892333,10.6366071 17.7690333,12.3719917 18.1539,14.5642994 L14.0645,14.5642994 C13.8878461,13.4658949 13.3016147,12.4759504 12.4246,11.7950687 C11.5582667,11.1273764 10.4703667,10.7942994 9.1609,10.7958379 C7.75388579,10.7614204 6.40002258,11.3355424 5.4441,12.3719917 C4.4505,13.4242994 3.95446667,14.9681456 3.956,17.0035302 C3.95753333,19.0389148 4.45356667,20.5873764 5.4441,21.6489148 C6.39474593,22.6949593 7.75037874,23.2765653 9.1609,23.2435302 C10.4703667,23.2435302 11.5582667,22.9042994 12.4246,22.2258379 C13.2987075,21.5373987 13.8838395,20.5451937 14.0645,19.4450687 L18.1539,19.4450687 C17.7721,21.6389148 16.7923,23.3804533 15.2145,24.6696841 C13.6367,25.9589148 11.6433667,26.602761 9.2345,26.6012225 C7.56764044,26.6342297 5.92029287,26.2369083 4.4505,25.4473764 C3.06467321,24.6793186 1.93088779,23.5241044 1.1868,22.1219917 C0.3956,20.6896841 1.98951966e-13,18.9866071 1.98951966e-13,17.012761 C1.98951966e-13,15.0389148 0.394066667,13.342761 1.1822,11.9242994 C1.92628779,10.5221867 3.06007321,9.36697254 4.4459,8.59891482 C5.91572981,7.80948021 7.56305164,7.412165 9.2299,7.44506867 C11.6403,7.44506867 13.6351667,8.08276097 15.2145,9.35814559 Z M46.0115,1.28122251 L46.0115,26.3750687 L42.159,26.3750687 L42.159,1.28122251 L46.0115,1.28122251 Z M63.5927,8.60814559 C65.0189825,9.36181292 66.1942789,10.5177765 66.9737,11.9335302 C67.7863667,13.3796841 68.1919333,15.0758379 68.1904043,17.0219917 C68.1888667,18.9681456 67.7833,20.6750687 66.9737,22.142761 C66.1942789,23.5585147 65.0189825,24.7144783 63.5927,25.4681456 C62.090026,26.2516161 60.416849,26.6481142 58.7236,26.6219917 C57.0361026,26.6492226 55.3686116,26.252573 53.8729,25.4681456 C52.448099,24.7050372 51.2738613,23.5445047 50.4919,22.1266071 C49.6685,20.6681456 49.2575667,18.9666071 49.2590957,17.0219917 C49.2606333,15.0773764 49.6715667,13.3812225 50.4919,11.9335302 C51.2777875,10.5227217 52.4514164,9.36839822 53.8729,8.60814559 C55.3686116,7.82371813 57.0361026,7.42706856 58.7236,7.45429943 C60.4160571,7.4254251 62.0891673,7.8187355 63.5927,8.59891482 L63.5927,8.60814559 Z M55.9866,11.492761 C55.1260704,11.9704764 54.4257987,12.6931648 53.9741,13.5696841 C53.437933,14.6356471 53.1762134,15.8193077 53.2128,17.012761 C53.2128,18.3973764 53.4665667,19.5512225 53.9741,20.4742994 C54.4270331,21.3499258 55.1269947,22.0722943 55.9866,22.5512225 C57.7014539,23.4527943 59.7480461,23.4527943 61.4629,22.5512225 C62.322005,22.0716385 63.0217996,21.3494425 63.4754,20.4742994 C63.9814,19.5512225 64.2344,18.3973764 64.2344,17.012761 C64.2344,15.6281456 63.9814,14.4804533 63.4754,13.5696841 C63.0230263,12.6936529 62.3229243,11.9711397 61.4629,11.492761 C59.7488292,10.5880027 57.7006708,10.5880027 55.9866,11.492761 L55.9866,11.492761 Z M92.9568,0.646607127 C93.4459509,0.203170387 94.0899866,-0.0282633652 94.7485,0.00276097329 C95.4123158,-0.0266902024 96.0614979,0.204221579 96.5586,0.646607127 C97.0129191,1.06281735 97.2646967,1.65647358 97.2486,2.2735302 C97.269428,2.8821563 97.0159998,3.46783811 96.5586,3.86814559 C96.0526496,4.29187433 95.4068468,4.51005744 94.7485,4.47968405 C94.0955002,4.51178344 93.4548334,4.29311269 92.9568,3.86814559 C92.506405,3.46385289 92.2586022,2.87948425 92.2806,2.2735302 C92.2580372,1.65272461 92.504683,1.05256607 92.9568,0.628145589 L92.9568,0.646607127 Z M96.6759,7.70122251 L96.6759,26.3935302 L92.8211,26.3935302 L92.8211,7.70122251 L96.6759,7.70122251 Z M112.3803,9.1435302 C113.698967,10.2619917 114.504733,11.7604533 114.7976,13.6389148 L111.1452,13.6389148 C111.023493,12.6874791 110.560748,11.8130332 109.8434,11.1789148 C109.135,10.5558379 108.192,10.2558379 107.0213,10.2558379 C106.0507,10.2558379 105.3032,10.4866071 104.7719,10.9481456 C104.237567,11.4234128 103.945927,12.1155118 103.9784,12.8312225 C103.954799,13.3671139 104.16467,13.8868067 104.5534,14.2550687 C104.968161,14.635816 105.457856,14.9251123 105.9909,15.1042994 C106.795444,15.3718536 107.612994,15.5982983 108.4404,15.782761 C109.595668,16.0278153 110.731764,16.3563643 111.8398,16.7658379 C112.707433,17.1067405 113.474938,17.6624629 114.0708,18.3812225 C114.684133,19.1166071 114.9908,20.1166071 114.9908,21.3812225 C115.030515,22.8577787 114.372123,24.2662471 113.2152,25.1796841 C112.033,26.1535302 110.438333,26.6396841 108.4312,26.6381492 C106.111267,26.6381492 104.235233,26.0958379 102.8031,25.0112225 C101.370967,23.9266071 100.511533,22.4012225 100.2248,20.4350687 L103.9784,20.4350687 C104.068767,21.4125096 104.558311,22.3088321 105.3308,22.9112225 C106.118933,23.5466071 107.155467,23.8635302 108.4404,23.8619917 C109.3604,23.8619917 110.0872,23.6189148 110.6208,23.132761 C111.143461,22.664534 111.434483,21.9894011 111.4166,21.2866071 C111.445544,20.7023327 111.223666,20.1336034 110.8071,19.7242994 C110.368765,19.3212987 109.850759,19.0154313 109.2868,18.8266071 C108.466916,18.5548163 107.63122,18.3336335 106.7844,18.1642994 C105.667282,17.9168093 104.566536,17.6000475 103.4885,17.2158379 C102.644447,16.9008763 101.897971,16.3683976 101.3242,15.6719917 C100.7262,14.9581456 100.427967,13.9912225 100.4295,12.7712225 C100.386986,11.2802708 101.04336,9.8555057 102.2028,8.92199174 C103.388067,7.9358379 105.027967,7.4435302 107.1225,7.44506507 C109.3075,7.44506507 111.0601,8.0058379 112.3803,9.12737636 L112.3803,9.1435302 Z M38.6584,16.4335302 C38.6784017,14.8877174 38.2996766,13.3629805 37.559,12.0073764 C36.8291967,10.6870502 35.7382678,9.60368275 34.4149,8.88506867 C31.4040256,7.36460779 27.8519237,7.37146161 24.8469,8.9035302 C23.4612356,9.67075506 22.32743,10.8251881 21.5832,12.2266071 C20.7950667,13.672761 20.401,15.3650687 20.401,17.3035302 C20.401,19.272761 20.7950667,20.9804533 21.5832,22.4266071 C22.3266473,23.8245062 23.4578555,24.9763302 24.84,25.742761 C26.3098298,26.5321956 27.9571516,26.9295108 29.624,26.8966071 C31.0781052,26.9174371 32.5194744,26.622216 33.8491,26.0312225 C36.2776544,24.9714399 38.0164525,22.7625203 38.4813,20.1466071 L34.3574,20.1466071 C34.1747808,21.2000087 33.5855287,22.1386682 32.7175,22.7589148 C31.7649548,23.4336984 30.6192609,23.7787992 29.4538,23.7419917 C28.0937592,23.7817162 26.7724552,23.28457 25.7738,22.3573764 C24.7832667,21.4342994 24.2535,20.0096841 24.1845,18.0835302 L38.5204,18.0835302 C38.6178754,17.5328745 38.6640745,16.9743132 38.6584,16.4150687 L38.6584,16.4335302 Z M25.8451,12.2266071 C26.882481,11.2935476 28.2384166,10.7976288 29.6309,10.8419917 C30.5382323,10.8324613 31.4352587,11.0355401 32.2506,11.4350687 C33.0553609,11.8345601 33.7167397,12.4747679 34.1435,13.2673764 C34.5099159,13.9491451 34.7197362,14.7045012 34.7576,15.4781456 L24.2719,15.4781456 C24.4743,14.0735302 24.9987,12.9835302 25.8451,12.2081456 L25.8451,12.2266071 Z M86.8273,9.54968405 C88.1367667,10.9573764 88.7922667,12.9642994 88.7938,15.5704533 L88.7938,26.4904533 L84.9275,26.4904533 L84.9275,15.9604533 C84.9275,14.2819917 84.4981667,12.9835302 83.6395,12.0650687 C82.7808333,11.1466071 81.6055333,10.6850687 80.1136,10.6804533 C78.5802667,10.6804533 77.3482333,11.1735302 76.4175,12.1596841 C75.4867667,13.1458379 75.0267667,14.5919917 75.0375,16.4981456 L75.0375,26.4650687 L71.1735,26.4650687 L71.1735,7.72891482 L75.0375,7.72891482 L75.0375,11.8435302 C75.4850377,10.503388 76.368866,9.35325077 77.5468,8.57814559 C78.7590435,7.79734654 80.1752526,7.39572256 81.6155,7.42429943 C83.7851667,7.42287386 85.5224333,8.12506867 86.8273,9.53122251 L86.8273,9.54968405 Z"></path>
      </g>
    </g>
  </g>
</svg>
